<svg width="70" height="70" viewBox="0 0 70 70" fill="none" xmlns="http://www.w3.org/2000/svg">
<path fill-rule="evenodd" clip-rule="evenodd" d="M48.3937 4.59022C53.1616 -0.251884 60.9887 -0.187729 65.6766 4.73187C70.1605 9.43732 70.0998 16.8541 65.5394 21.4854L38.4465 49H22V31.3947L48.3937 4.59022ZM59.0208 11.0789C57.9152 9.91864 56.0692 9.90351 54.9447 11.0455L31.1954 35.1644V39.8012H34.5969L58.9884 15.0301C60.0639 13.9378 60.0783 12.1887 59.0208 11.0789Z" fill="black"/>
<path fill-rule="evenodd" clip-rule="evenodd" d="M27.6667 11.3333C18.646 11.3333 11.3333 18.646 11.3333 27.6667V42.3333C11.3333 51.354 18.646 58.6667 27.6667 58.6667H42.3333C51.354 58.6667 58.6667 51.354 58.6667 42.3333V35C58.6667 31.8704 61.2037 29.3333 64.3333 29.3333C67.4629 29.3333 70 31.8704 70 35V42.3333C70 57.6132 57.6132 70 42.3333 70H27.6667C12.3868 70 0 57.6132 0 42.3333V27.6667C0 12.3868 12.3868 0 27.6667 0H35C38.1296 0 40.6667 2.53705 40.6667 5.66667C40.6667 8.79628 38.1296 11.3333 35 11.3333H27.6667Z" fill="black"/>
</svg>
