<svg width="68" height="68" viewBox="0 0 68 68" fill="none" xmlns="http://www.w3.org/2000/svg">
<path fill-rule="evenodd" clip-rule="evenodd" d="M40.5044 11.7308H28.115C19.2198 11.7308 12.0088 18.9418 12.0088 27.837V40.2263C12.0088 49.1215 19.2198 56.3325 28.115 56.3325H40.5044C49.3996 56.3325 56.6106 49.1215 56.6106 40.2263V27.837C56.6106 18.9418 49.3996 11.7308 40.5044 11.7308ZM28.115 0.580322C13.0616 0.580322 0.858398 12.7835 0.858398 27.837V40.2263C0.858398 55.2798 13.0616 67.483 28.115 67.483H40.5044C55.5578 67.483 67.7611 55.2798 67.7611 40.2263V27.837C67.7611 12.7835 55.5578 0.580322 40.5044 0.580322H28.115Z" fill="#1992FA"/>
</svg>
