<svg width="50" height="50" viewBox="0 0 50 50" fill="none" xmlns="http://www.w3.org/2000/svg">
<path fill-rule="evenodd" clip-rule="evenodd" d="M3.69845 11.3744C7.81808 4.64951 14.9895 0 21.9904 0H27.3965L25.1488 4.89161C21.4071 13.0348 22.9613 19.5811 26.7726 24.058C30.7287 28.7048 37.4347 31.4808 44.4804 31.1009L50 30.8032L47.8739 35.8798C44.0046 45.1189 35.2522 49.7418 26.4805 49.9894C17.73 50.2364 8.53728 46.1611 3.47458 37.5983L3.43207 37.5264L3.39309 37.4526C-1.75775 27.6913 -0.545369 18.302 3.69845 11.3744ZM9.50329 34.1656C5.58433 26.6811 6.60741 19.9035 9.62925 14.9707C11.4963 11.9228 14.0605 9.66014 16.6835 8.3203C14.9367 16.2145 16.9814 23.2486 21.4728 28.5242C25.6975 33.4867 31.9128 36.6937 38.6255 37.703C35.5222 41.1237 31.0418 42.9477 26.2835 43.082C19.7575 43.2662 13.1318 40.2396 9.50329 34.1656Z" fill="black"/>
</svg>
