<svg width="50" height="50" viewBox="0 0 50 50" fill="none" xmlns="http://www.w3.org/2000/svg">
<path fill-rule="evenodd" clip-rule="evenodd" d="M25 15.1132L24.6909 16.1063C23.3185 20.5163 19.3823 23.5021 14.941 23.5021H13.9408L14.75 24.1159C18.3431 26.8414 19.8466 31.6725 18.4741 36.0825L18.1651 37.0756L18.9742 36.4618C22.5673 33.7363 27.4327 33.7363 31.0258 36.4618L31.8349 37.0756L31.5259 36.0825C30.1534 31.6725 31.6569 26.8414 35.25 24.1159L36.0592 23.5021H35.059C30.6177 23.5021 26.6815 20.5163 25.3091 16.1063L25 15.1132ZM28.25 2.46525C27.227 -0.82175 22.773 -0.821749 21.75 2.46525L18.191 13.9014C17.7335 15.3714 16.4215 16.3666 14.941 16.3666L3.42376 16.3666C0.113429 16.3666 -1.26294 20.7892 1.41517 22.8207L10.7329 29.8886C11.9305 30.7971 12.4317 32.4075 11.9742 33.8775L8.41519 45.3136C7.39224 48.6006 10.9956 51.3339 13.6737 49.3024L22.9914 42.2345C24.1891 41.326 25.8109 41.326 27.0086 42.2345L36.3263 49.3024C39.0044 51.3339 42.6078 48.6006 41.5848 45.3136L38.0258 33.8775C37.5683 32.4075 38.0695 30.7971 39.2671 29.8886L48.5848 22.8207C51.2629 20.7892 49.8866 16.3666 46.5762 16.3666L35.059 16.3666C33.5785 16.3666 32.2665 15.3714 31.809 13.9014L28.25 2.46525Z" fill="black"/>
</svg>
