<svg width="68" height="68" viewBox="0 0 68 68" fill="none" xmlns="http://www.w3.org/2000/svg">
<path fill-rule="evenodd" clip-rule="evenodd" d="M40.5044 11.9786H28.115C19.2198 11.9786 12.0088 19.1896 12.0088 28.0848V40.4741C12.0088 49.3694 19.2198 56.5803 28.115 56.5803H40.5044C49.3996 56.5803 56.6106 49.3694 56.6106 40.4741V28.0848C56.6106 19.1896 49.3996 11.9786 40.5044 11.9786ZM28.115 0.828125C13.0616 0.828125 0.858398 13.0313 0.858398 28.0848V40.4741C0.858398 55.5276 13.0616 67.7308 28.115 67.7308H40.5044C55.5578 67.7308 67.7611 55.5276 67.7611 40.4741V28.0848C67.7611 13.0313 55.5578 0.828125 40.5044 0.828125H28.115Z" fill="#28C166"/>
</svg>
