<svg width="68" height="68" viewBox="0 0 68 68" fill="none" xmlns="http://www.w3.org/2000/svg">
<path fill-rule="evenodd" clip-rule="evenodd" d="M40.5044 11.8548H28.115C19.2198 11.8548 12.0088 19.0658 12.0088 27.961V40.3504C12.0088 49.2456 19.2198 56.4566 28.115 56.4566H40.5044C49.3996 56.4566 56.6106 49.2456 56.6106 40.3504V27.961C56.6106 19.0658 49.3996 11.8548 40.5044 11.8548ZM28.115 0.704346C13.0616 0.704346 0.858398 12.9076 0.858398 27.961V40.3504C0.858398 55.4038 13.0616 67.607 28.115 67.607H40.5044C55.5578 67.607 67.7611 55.4038 67.7611 40.3504V27.961C67.7611 12.9076 55.5578 0.704346 40.5044 0.704346H28.115Z" fill="#9719FA"/>
</svg>
