<svg width="70" height="71" viewBox="0 0 70 71" fill="none" xmlns="http://www.w3.org/2000/svg">
<path fill-rule="evenodd" clip-rule="evenodd" d="M42.7434 11.8636H27.8761C18.9809 11.8636 11.7699 19.0746 11.7699 27.9698V42.837C11.7699 51.7322 18.9809 58.9432 27.8761 58.9432H42.7434C51.6386 58.9432 58.8496 51.7322 58.8496 42.837V27.9698C58.8496 19.0746 51.6386 11.8636 42.7434 11.8636ZM27.8761 0.713135C12.8227 0.713135 0.619507 12.9163 0.619507 27.9698V42.837C0.619507 57.8905 12.8227 70.0937 27.8761 70.0937H42.7434C57.7968 70.0937 70 57.8905 70 42.837V27.9698C70 12.9163 57.7968 0.713135 42.7434 0.713135H27.8761Z" fill="#FA4119"/>
</svg>
